<svg width="210" height="210" viewBox="0 0 210 210" fill="none" xmlns="http://www.w3.org/2000/svg">
<path d="M40.92 42.4L105.3 60.47L68.02 6C68.02 6 34.14 20.94 40.91 42.4H40.92Z" stroke="black" stroke-width="3" stroke-linejoin="round"/>
<path d="M68.02 6C68.02 6 81.01 11.74 100.21 11.74H110.37C129.57 11.74 142.56 6 142.56 6" stroke="black" stroke-width="3" stroke-linejoin="round"/>
<path d="M42.62 166.56H16.64V181.81H42.62V166.56Z" stroke="black" stroke-width="3" stroke-linejoin="round"/>
<path d="M40.92 42.3999L8 111.99L16.64 166.56" stroke="black" stroke-width="3" stroke-linejoin="round"/>
<path d="M169.67 42.4L105.29 60.47L142.56 6C142.56 6 176.44 20.94 169.67 42.4Z" stroke="black" stroke-width="3" stroke-linejoin="round"/>
<path d="M167.98 82.3301V203.61H42.61V82.3301" stroke="black" stroke-width="3" stroke-linejoin="round"/>
<path d="M167.97 181.82H193.95V166.57H167.97V181.82Z" stroke="black" stroke-width="3" stroke-linejoin="round"/>
<path d="M169.67 42.3999L202.59 111.99L193.95 166.56" stroke="black" stroke-width="3" stroke-linejoin="round"/>
<path d="M127.41 127.38H83.18C80.33 142.21 71.08 154.75 58.42 162.05V187.8H152.16V162.05C139.5 154.75 130.26 142.21 127.4 127.38H127.41Z" stroke="black" stroke-width="3" stroke-linejoin="round"/>
<path fill-rule="evenodd" clip-rule="evenodd" d="M104.81 138.258C113.681 138.258 122.189 134.734 128.461 128.461C134.734 122.188 138.258 113.681 138.258 104.81C138.258 95.9388 134.734 87.4312 128.461 81.1585C122.189 74.8858 113.681 71.3618 104.81 71.3618C95.939 71.3618 87.4314 74.8858 81.1587 81.1585C74.886 87.4312 71.362 95.9388 71.362 104.81C71.362 113.681 74.886 122.188 81.1587 128.461C87.4314 134.734 95.939 138.258 104.81 138.258ZM99.4039 93.4918C98.6154 92.7302 97.5593 92.3088 96.463 92.3183C95.3668 92.3279 94.3181 92.7676 93.5429 93.5428C92.7678 94.318 92.328 95.3666 92.3185 96.4628C92.309 97.5591 92.7304 98.6152 93.492 99.4038L98.898 104.81L93.492 110.216C93.0927 110.602 92.7742 111.063 92.555 111.573C92.3359 112.083 92.2206 112.632 92.2158 113.187C92.2109 113.742 92.3167 114.293 92.527 114.806C92.7372 115.32 93.0476 115.787 93.4402 116.18C93.8328 116.572 94.2996 116.883 94.8134 117.093C95.3272 117.303 95.8778 117.409 96.4329 117.404C96.9881 117.399 97.5367 117.284 98.0468 117.065C98.5569 116.846 99.0183 116.527 99.4039 116.128L104.81 110.722L110.216 116.128C111.005 116.889 112.061 117.311 113.157 117.301C114.253 117.292 115.302 116.852 116.077 116.077C116.852 115.302 117.292 114.253 117.301 113.157C117.311 112.06 116.89 111.004 116.128 110.216L110.722 104.81L116.128 99.4038C116.89 98.6152 117.311 97.5591 117.301 96.4628C117.292 95.3666 116.852 94.318 116.077 93.5428C115.302 92.7676 114.253 92.3279 113.157 92.3183C112.061 92.3088 111.005 92.7302 110.216 93.4918L104.81 98.8979L99.4039 93.4918Z" fill="#EA0404"/>
</svg>
