<?xml version="1.0" encoding="utf-8"?>
<!-- Generator: Adobe Illustrator 28.1.0, SVG Export Plug-In . SVG Version: 6.00 Build 0)  -->
<svg version="1.1" id="Layer_1" xmlns="http://www.w3.org/2000/svg" xmlns:xlink="http://www.w3.org/1999/xlink" x="0px" y="0px"
	 viewBox="0 0 100 98.4" style="enable-background:new 0 0 100 98.4;" xml:space="preserve">
<g>
	<path d="M95.1,87.3c-0.9-1.8-1.4-4.2-1.4-4.7C94,65,81.5,28.6,80.9,27.1c-0.1-0.2-1.7-5.1-8-7.8c0.4-0.8,0.8-1.6,1-2.5
		c1.3-4.7-1.9-8.8-5.6-9.8C65,6,59.9,4.9,50,4.9h0h0c-9.9,0-15,1.1-18.3,2.1C28,8,24.8,12,26.1,16.7c0.2,0.9,0.6,1.7,1,2.5
		c-6.4,2.8-8,7.6-8.1,7.8C18.5,28.6,6,65,6.4,82.5c-0.1,0.5-0.5,2.9-1.4,4.7c-0.2,0.5-0.1,1,0.4,1.3l8,4.8c0.2,0.1,0.3,0.1,0.5,0.1
		c0.1,0,0.2,0,0.3,0c0.3-0.1,0.5-0.3,0.6-0.5c0,0,1.2-2.6,3-4.7c0.7-0.4,2.9-1.8,4.9-5.1c0.8,1.3,1.8,2.1,2.4,2.4
		c0.4,0.8,1.5,3.5,2,6.5c0.1,0.5,0.5,0.8,1,0.8c0,0,0,0,0.1,0c0.1,0,9.6-0.6,22-0.6c12.4,0,21.9,0.6,22,0.6c0.5,0,1-0.3,1-0.8
		c0.5-3,1.7-5.6,2-6.5c0.5-0.3,1.6-1.1,2.3-2.3c2,3.3,4.2,4.7,4.8,5.1c1.8,2.1,3,4.6,3.1,4.7c0.1,0.2,0.3,0.4,0.6,0.5
		c0.1,0,0.2,0,0.3,0c0.2,0,0.4-0.1,0.5-0.1l8-4.8C95.1,88.3,95.3,87.7,95.1,87.3z M32.2,8.9c3.2-0.9,8.1-2,17.8-2h0h0
		c9.6,0,14.6,1.1,17.8,2c2.8,0.8,5.2,3.8,4.2,7.4c-0.7,2.6-5.1,9.3-16.5,12.5c0.1-0.1,0.1-0.1,0.1-0.1c0.4-0.4,0.3-1-0.1-1.4
		c-0.2-0.2-0.5-0.3-0.7-0.2c3.8-2.5,11.1-7.9,15-11.7c0.1-0.1,1.2-1,1.1-2.2c0-0.5-0.2-1.2-1.2-1.9c-0.5-0.3-1.1-0.2-1.4,0.3
		s-0.2,1.1,0.3,1.4c0.2,0.2,0.3,0.3,0.3,0.3c0,0.1-0.2,0.4-0.4,0.6c-2.4,2.3-6,5.2-9.2,7.6c1.8-4.1,1.8-8,1.8-8.2c0-0.6-0.5-1-1-1
		c-0.5,0-1,0.4-1,1c0,0.1,0,6.9-4.1,11.3c0,0,0,0,0,0c-1.5,1-2.7,1.8-3.1,2c-0.7,0.3-1.2,0.8-1.6,1.2c-1.5-0.8-3.2-1.8-5-3
		c0,0,0-0.1-0.1-0.2c-4.1-4.4-4-11.2-4-11.3c0-0.6-0.4-1-1-1c-0.5,0-1,0.4-1,1c0,0.2-0.1,4.4,1.8,8.5c-3.5-2.6-7-5.5-9.6-7.9
		c-0.1-0.1-0.4-0.4-0.4-0.5c0,0,0.1-0.1,0.3-0.3c0.5-0.3,0.6-0.9,0.3-1.4c-0.3-0.5-0.9-0.6-1.4-0.3c-0.9,0.6-1.2,1.4-1.2,1.9
		c0,1.2,1,2.1,1,2.1c3.9,3.8,10,8.5,15.2,11.8c-0.1,0.1-0.3,0.1-0.4,0.2c-0.4,0.4-0.4,1,0,1.4c0,0,0.1,0.1,0.2,0.2
		c-6-1.9-15.1-5.9-17-12.6C27.1,12.7,29.5,9.6,32.2,8.9z M49.1,30c-0.2,0-0.5-0.1-0.8-0.2c-0.4-0.6-0.8-1.1-1.2-1.6
		c0.7,0.4,1.3,0.8,1.9,1.1c0,0,0,0.1,0,0.1C49,29.6,49.1,29.8,49.1,30z M51,30c0,0,0-0.1,0-0.1c0,0,0.3-1,1.6-1.6
		c0.3-0.1,0.7-0.4,1.3-0.7c-0.3,0.4-0.8,1.1-1.2,2C52,29.8,51.4,29.9,51,30z M13.4,91.1l-6.3-3.8c0.6-1.4,0.9-2.8,1.1-3.7
		c0.1,0.1,0.2,0.2,0.4,0.2c0,0,4,1.3,7,3.6c0.1,0,0.1,0.1,0.2,0.1C14.7,88.8,13.9,90.2,13.4,91.1z M71.3,90.8
		c-2.6-0.1-11-0.5-21.3-0.5c-10.3,0-18.6,0.4-21.2,0.5c-0.4-2.1-1.1-3.9-1.6-5.1c7-0.4,14.6-0.5,22.8-0.5l0,0l0,0
		c8.2,0,15.9,0.2,22.8,0.5C72.4,86.9,71.7,88.7,71.3,90.8z M78.2,80.4c0-1.9-0.5-7.5-1.4-16.3c-0.7-7.4-1.5-15.1-1.5-17.7
		c-0.1-5.1,1.9-15.4,3-19.2c0.2-0.5-0.2-1.1-0.7-1.2s-1.1,0.2-1.2,0.7c-1.1,3.8-3.1,14.2-3.1,19.8c0,2.7,0.8,10.4,1.5,17.8
		c0.7,6.8,1.3,13.8,1.3,15.9c-0.1,0.2-0.1,0.3,0,0.5c-0.2,1.7-1.5,2.8-2.1,3.1c-7.3-0.4-15.4-0.6-24.1-0.6l0,0l0,0l0,0l0,0
		c-8.7,0-16.8,0.2-24.1,0.6c-0.5-0.4-1.9-1.4-2.1-3.2c-0.1-1.3,0.6-8.9,1.3-16.3c0.7-7.5,1.5-15.2,1.5-17.9c0-5.5-2-16-3.1-19.8
		c-0.1-0.5-0.7-0.8-1.2-0.7c-0.5,0.1-0.8,0.7-0.7,1.2c1.1,3.9,3.1,14.1,3,19.2c0,2.6-0.8,10.2-1.5,17.7c-0.8,8.6-1.4,14.2-1.4,16.2
		c-1.7,3.7-3.9,5.4-4.7,6c-0.1-0.2-0.2-0.3-0.3-0.5c-3.3-2.5-7.4-3.9-7.6-3.9c-0.3-0.1-0.6,0-0.8,0.1C8.2,64.7,20.8,28.1,21,27.7
		c0.1-0.2,1.5-4.4,7.3-6.7c4.5,6.1,14.1,9.4,18.9,10.6c0.8,1.4,1.2,3,0.2,4.3c-0.2,0.2-0.4,0.5-0.6,0.7c-1.6,1.8-4.1,4.6-3.3,8.4
		c0.5,2.7-0.4,3.2-0.4,3.2l0,0c-0.4,0.1-0.7,0.5-0.7,1v1.6c0,0.5,0.5,1,1,1s1-0.5,1-1v-1c0.7-0.6,1.7-2,1.1-5.1
		c-0.5-2.8,1.3-5,2.9-6.7c0.2-0.3,0.5-0.5,0.7-0.7c1.3-1.6,1.3-3.3,0.8-5c0.2,0,0.3,0.1,0.3,0.1c0.1,0,0.1,0,0.2,0c0,0,0,0,0,0h0h0
		c0,0,0,0,0,0c0,0,0.1,0,0.2,0c0.1,0,0.8-0.2,1.9-0.4c-0.1,1.1,0.1,2.2,0.8,3.4c1.7,2.9,2.6,7.5,1.1,10.2c0,0.1-0.1,0.2-0.1,0.3
		l-0.3,1.7c-0.1,0.5,0.3,1.1,0.8,1.2c0.1,0,0.1,0,0.2,0c0.5,0,0.9-0.3,1-0.8l0.3-1.6c1.8-3.5,0.8-8.8-1.2-12.1c-0.6-1-0.6-2-0.4-2.9
		c5-1.5,13.4-4.6,17.6-10.3c5.7,2.4,7.2,6.5,7.2,6.7c0.1,0.4,12.7,36.9,12.6,54.3c-0.2-0.1-0.5-0.1-0.8-0.1
		c-0.2,0.1-4.3,1.4-7.6,3.9c-0.2,0.1-0.3,0.3-0.3,0.5C82.1,85.8,79.9,84.1,78.2,80.4z M86.6,91.1c-0.5-0.9-1.3-2.2-2.3-3.5
		c0.1,0,0.2-0.1,0.2-0.1c3-2.3,7-3.6,7-3.6c0.1,0,0.2-0.1,0.3-0.2c0.2,0.9,0.5,2.3,1.1,3.7L86.6,91.1z"/>
	<path d="M61,59.6c-0.1-0.3-0.4-0.5-0.8-0.5c-0.2,0-6-0.9-10.2-0.9S40.1,59,39.8,59c-0.3,0-0.6,0.2-0.8,0.5l-6.3,12.9
		c-0.2,0.5,0,1.1,0.5,1.3c0.1,0.1,0.3,0.1,0.4,0.1c0.4,0,0.7-0.2,0.9-0.6L40.6,61c1.5-0.2,6-0.8,9.4-0.8s7.9,0.6,9.4,0.8l6.1,12.4
		c0.2,0.3,0.5,0.6,0.9,0.6c0.2,0,0.3,0,0.4-0.1c0.5-0.2,0.7-0.8,0.5-1.3L61,59.6z"/>
	<path d="M43.2,18.8h2.2v3.5c0,0.5,0.5,1,1,1h7.4c0.5,0,1-0.5,1-1v-3.5h2.2c0.5,0,1-0.5,1-1s-0.5-1-1-1h-3.2h-7.4h-3.2
		c-0.5,0-1,0.5-1,1S42.6,18.8,43.2,18.8z M52.7,18.8v2.5h-5.4v-2.5L52.7,18.8L52.7,18.8z"/>
</g>
</svg>
