<svg width="210" height="210" viewBox="0 0 210 210" fill="none" xmlns="http://www.w3.org/2000/svg">
<path d="M40.92 42.4L105.3 60.47L68.02 6C68.02 6 34.14 20.94 40.91 42.4H40.92Z" stroke="white" stroke-width="3" stroke-linejoin="round"/>
<path d="M68.02 6C68.02 6 81.01 11.74 100.21 11.74H110.37C129.57 11.74 142.56 6 142.56 6" stroke="white" stroke-width="3" stroke-linejoin="round"/>
<path d="M42.62 166.56H16.64V181.81H42.62V166.56Z" stroke="white" stroke-width="3" stroke-linejoin="round"/>
<path d="M40.92 42.3999L8 111.99L16.64 166.56" stroke="white" stroke-width="3" stroke-linejoin="round"/>
<path d="M169.67 42.4L105.29 60.47L142.56 6C142.56 6 176.44 20.94 169.67 42.4Z" stroke="white" stroke-width="3" stroke-linejoin="round"/>
<path d="M167.98 82.3301V203.61H42.61V82.3301" stroke="white" stroke-width="3" stroke-linejoin="round"/>
<path d="M167.97 181.82H193.95V166.57H167.97V181.82Z" stroke="white" stroke-width="3" stroke-linejoin="round"/>
<path d="M169.67 42.3999L202.59 111.99L193.95 166.56" stroke="white" stroke-width="3" stroke-linejoin="round"/>
<path d="M127.41 127.38H83.18C80.33 142.21 71.08 154.75 58.42 162.05V187.8H152.16V162.05C139.5 154.75 130.26 142.21 127.4 127.38H127.41Z" stroke="white" stroke-width="3" stroke-linejoin="round"/>
<path fill-rule="evenodd" clip-rule="evenodd" d="M138.258 104.81C138.258 113.681 134.734 122.188 128.461 128.461C122.189 134.734 113.681 138.258 104.81 138.258C95.939 138.258 87.4314 134.734 81.1587 128.461C74.886 122.188 71.362 113.681 71.362 104.81C71.362 95.9388 74.886 87.4312 81.1587 81.1585C87.4314 74.8858 95.939 71.3618 104.81 71.3618C113.681 71.3618 122.189 74.8858 128.461 81.1585C134.734 87.4312 138.258 95.9388 138.258 104.81ZM104.81 92.2668C104.075 92.2661 103.354 92.4589 102.717 92.8259C102.081 93.1929 101.552 93.7211 101.185 94.3573C100.92 94.8501 100.558 95.2847 100.122 95.6353C99.6858 95.9858 99.1836 96.2452 98.6452 96.398C98.1068 96.5509 97.5432 96.5941 96.9878 96.5251C96.4324 96.4561 95.8965 96.2763 95.4119 95.9963C94.9272 95.7163 94.5038 95.3419 94.1665 94.8953C93.8293 94.4486 93.5852 93.9388 93.4487 93.396C93.3121 92.8533 93.2859 92.2886 93.3717 91.7355C93.4574 91.1825 93.6533 90.6523 93.9477 90.1763C95.3284 87.7852 97.4594 85.9165 100.01 84.86C102.561 83.8035 105.389 83.6181 108.056 84.3328C110.723 85.0474 113.08 86.622 114.761 88.8125C116.442 91.0029 117.353 93.6868 117.353 96.4478C117.354 99.0426 116.55 101.574 115.052 103.693C113.555 105.812 111.437 107.415 108.991 108.28V108.991C108.991 110.1 108.55 111.163 107.766 111.947C106.982 112.731 105.919 113.172 104.81 113.172C103.701 113.172 102.638 112.731 101.854 111.947C101.069 111.163 100.629 110.1 100.629 108.991V104.81C100.629 103.701 101.069 102.637 101.854 101.853C102.638 101.069 103.701 100.629 104.81 100.629C105.919 100.629 106.982 100.188 107.766 99.4042C108.55 98.6201 108.991 97.5567 108.991 96.4478C108.991 95.3389 108.55 94.2755 107.766 93.4914C106.982 92.7073 105.919 92.2668 104.81 92.2668ZM104.81 125.715C105.919 125.715 106.982 125.274 107.766 124.49C108.55 123.706 108.991 122.643 108.991 121.534C108.991 120.425 108.55 119.361 107.766 118.577C106.982 117.793 105.919 117.353 104.81 117.353C103.701 117.353 102.638 117.793 101.854 118.577C101.069 119.361 100.629 120.425 100.629 121.534C100.629 122.643 101.069 123.706 101.854 124.49C102.638 125.274 103.701 125.715 104.81 125.715Z" fill="white"/>
</svg>
