<svg width="173" height="40" viewBox="0 0 173 40" fill="none" xmlns="http://www.w3.org/2000/svg" class="w-24 lg:w-36"><path fill-rule="evenodd" clip-rule="evenodd" d="M133.839 27.0136V16.4086C133.839 12.967 131.793 11.207 128.827 11.207C126.137 11.207 123.772 12.767 122.167 14.4486V0.118639L121.846 0.000305176L113.022 2.28031V2.68031C114.266 2.60197 115.509 3.16197 115.509 5.52197V27.0136C115.509 29.057 114.467 29.737 113.383 29.8553V30.2553H123.932V29.8953C122.929 29.777 122.167 29.1353 122.167 27.0536V15.4486C123.01 14.687 123.973 14.1686 124.975 14.1686C126.298 14.1686 127.181 15.1286 127.181 17.0886V27.0536C127.181 29.1353 126.578 29.777 125.417 29.8953V30.2553H136.086V29.8553C134.922 29.737 133.839 29.057 133.839 27.0136ZM24.5873 8.88464C22.1001 4.44131 20.216 3.08131 17.8491 3.08131H16.9254V25.773C16.9254 29.0163 18.5707 29.6963 20.2561 29.8546V30.2563H6.0967V29.8546C7.78207 29.6963 9.42567 29.0163 9.42567 25.773V3.08131H8.58382C5.93635 3.08131 3.81002 4.60131 1.48492 9.12464L0.481055 11.0063H0L1.04229 2.24131H25.2687L26.2726 11.0063H25.7498L24.5873 8.88464ZM29.9271 20.9725C29.9271 26.7741 31.1298 30.2558 33.1358 30.2558C34.7009 30.2558 36.2644 28.4158 36.2644 21.1708C36.2644 15.2891 35.0601 11.9258 32.9755 11.9258C31.4104 11.9258 29.9271 13.9275 29.9271 20.9725ZM23.027 21.1708C23.027 15.7275 27.6404 11.2058 33.1358 11.2058C39.1524 11.2058 43.243 15.6091 43.243 21.0525C43.243 26.2941 38.9118 30.9775 33.1358 30.9775C27.3197 30.9775 23.027 26.6141 23.027 21.1708ZM93.4128 27.0136V16.4086C93.4128 12.967 91.3266 11.207 88.3584 11.207C85.6308 11.207 83.2656 12.8086 81.6203 14.567V11.3653L81.2996 11.2453L66.8045 11.9253V12.3253C68.8907 12.527 70.0132 15.4086 68.3679 19.5303L66.8045 23.4936L63.8363 15.0886C63.235 13.447 63.4354 12.487 64.7984 12.3253V11.9253H54.5309V12.3253C55.2926 12.487 56.1762 13.407 57.2986 16.2886L57.7396 17.4886L55.4128 23.5336L52.2442 15.9686C51.242 13.607 51.5627 12.487 52.767 12.3253V11.9253H42.3776V12.3253C43.3798 12.647 44.103 13.527 45.3057 16.2886L51.4826 30.5353H53.5688L58.2608 18.7703L62.7139 30.5353H64.7583L69.7727 18.5303C71.5449 14.322 72.7576 12.447 74.0337 12.447C74.8856 12.447 75.0409 14.9403 75.0409 16.9286V27.0136C75.0409 29.057 73.9184 29.737 72.796 29.8553V30.2553H83.4644V29.8953C82.4221 29.777 81.7005 29.1353 81.7005 27.0136V15.4486C82.5423 14.687 83.5462 14.1686 84.5083 14.1686C85.8713 14.1686 86.7549 15.1286 86.7549 17.0886V27.0136C86.7549 29.1353 86.1519 29.777 84.9493 29.8953V30.2553H95.6594V29.8553C94.4551 29.737 93.4128 29.057 93.4128 27.0136ZM102.244 14.2471C102.244 16.0071 104.169 16.9705 106.335 18.0488L106.404 18.0818C109.316 19.4757 112.672 21.0819 112.672 24.8538C112.672 28.4555 109.624 30.9771 104.411 30.9771C101.723 30.9771 98.8352 30.3371 97.2701 29.6155L98.8753 23.9321L99.3564 23.9738C99.9978 27.7755 102.284 30.2555 104.932 30.2555C106.736 30.2555 107.86 29.2155 107.86 27.8555C107.86 26.2138 106.135 25.2521 104.088 24.2538C103.976 24.1968 103.863 24.1397 103.749 24.0822C100.978 22.6852 97.8314 21.0987 97.8314 17.3688C97.8314 14.0071 100.679 11.2071 105.774 11.2071C108.141 11.2071 110.305 11.7655 112.111 12.6871L110.748 17.6888L110.305 17.6488C109.343 14.1688 107.217 12.0455 104.932 12.0455C103.367 12.0455 102.244 12.9271 102.244 14.2471ZM137.655 30.2555V29.8555C138.778 29.7371 139.902 29.0571 139.902 27.0138V16.9288C139.902 14.6088 138.539 14.0488 137.254 14.1271V13.7271L146.319 11.2455L146.64 11.3655L146.562 16.5288V27.0138C146.562 29.0571 147.804 29.7371 148.927 29.8555V30.2555H137.655ZM143.111 9.1653C145.317 9.1653 147.041 7.44364 147.041 5.40197C147.041 3.2403 145.317 1.52031 143.111 1.52031C141.025 1.52031 139.219 3.2403 139.219 5.40197C139.219 7.44364 141.025 9.1653 143.111 9.1653ZM160.436 14.8088C159.673 14.8088 159.112 15.0471 158.591 15.4088V27.5755C158.791 29.3355 159.713 30.2971 160.677 30.2971C162.401 30.2971 164.247 27.0538 164.247 21.6921C164.247 16.9705 162.721 14.8088 160.436 14.8088ZM171.025 19.6905C171.025 26.2938 165.69 30.9771 160.677 30.9771C159.875 30.9771 159.192 30.8571 158.591 30.6171V36.1805C158.591 38.2221 159.753 38.9021 160.918 39.0221V39.4221H149.606V39.0221C150.729 38.9021 151.933 38.2221 151.933 36.1805V16.9288C151.933 14.6088 150.568 14.0488 149.245 14.1271V13.7271L158.19 11.2455L158.511 11.3655V14.3288C159.713 12.6871 161.519 11.2071 164.166 11.2071C168.858 11.2071 171.025 15.4888 171.025 19.6905Z" fill="#111111"></path></svg>
