<svg width="210" height="210" viewBox="0 0 210 210" fill="none" xmlns="http://www.w3.org/2000/svg">
<path d="M40.92 42.4L105.3 60.47L68.02 6C68.02 6 34.14 20.94 40.91 42.4H40.92Z" stroke="black" stroke-width="3" stroke-linejoin="round"/>
<path d="M68.02 6C68.02 6 81.01 11.74 100.21 11.74H110.37C129.57 11.74 142.56 6 142.56 6" stroke="black" stroke-width="3" stroke-linejoin="round"/>
<path d="M42.62 166.56H16.64V181.81H42.62V166.56Z" stroke="black" stroke-width="3" stroke-linejoin="round"/>
<path d="M40.92 42.3999L8 111.99L16.64 166.56" stroke="black" stroke-width="3" stroke-linejoin="round"/>
<path d="M169.67 42.4L105.29 60.47L142.56 6C142.56 6 176.44 20.94 169.67 42.4Z" stroke="black" stroke-width="3" stroke-linejoin="round"/>
<path d="M167.98 82.3301V203.61H42.61V82.3301" stroke="black" stroke-width="3" stroke-linejoin="round"/>
<path d="M167.97 181.82H193.95V166.57H167.97V181.82Z" stroke="black" stroke-width="3" stroke-linejoin="round"/>
<path d="M169.67 42.3999L202.59 111.99L193.95 166.56" stroke="black" stroke-width="3" stroke-linejoin="round"/>
<path d="M127.41 127.38H83.18C80.33 142.21 71.08 154.75 58.42 162.05V187.8H152.16V162.05C139.5 154.75 130.26 142.21 127.4 127.38H127.41Z" stroke="black" stroke-width="3" stroke-linejoin="round"/>
<path fill-rule="evenodd" clip-rule="evenodd" d="M104.81 138.258C113.681 138.258 122.189 134.734 128.461 128.461C134.734 122.188 138.258 113.681 138.258 104.81C138.258 95.9388 134.734 87.4312 128.461 81.1585C122.189 74.8858 113.681 71.3618 104.81 71.3618C95.939 71.3618 87.4314 74.8858 81.1587 81.1585C74.886 87.4312 71.362 95.9388 71.362 104.81C71.362 113.681 74.886 122.188 81.1587 128.461C87.4314 134.734 95.939 138.258 104.81 138.258ZM120.309 99.4038C121.071 98.6152 121.492 97.5591 121.482 96.4628C121.473 95.3666 121.033 94.318 120.258 93.5428C119.483 92.7676 118.434 92.3279 117.338 92.3183C116.242 92.3088 115.186 92.7302 114.397 93.4918L100.629 107.26L95.2229 101.854C94.4344 101.092 93.3783 100.671 92.282 100.68C91.1858 100.69 90.1371 101.13 89.3619 101.905C88.5868 102.68 88.147 103.729 88.1375 104.825C88.128 105.921 88.5494 106.977 89.311 107.766L97.673 116.128C98.4571 116.912 99.5203 117.352 100.629 117.352C101.738 117.352 102.801 116.912 103.585 116.128L120.309 99.4038Z" fill="#27AE60"/>
</svg>
